<svg width="0" height="0" class="hidden">
    <symbol viewBox="0 0 524.235 524.235" xmlns="http://www.w3.org/2000/svg" id="info" fill="currentColor">
	<path d="M262.118 0C117.588 0 0 117.588 0 262.118s117.588 262.118 262.118 262.118 262.118-117.588 262.118-262.118S406.647 0 262.118 0zm17.05 417.639c-12.453 2.076-37.232 7.261-49.815 8.303-10.651.882-20.702-5.215-26.829-13.967a32.756 32.756 0 0 1-3.968-29.997l49.547-136.242h-51.515c-.044-28.389 21.25-49.263 48.485-57.274 12.997-3.824 37.212-9.057 49.809-8.255 7.547.48 20.702 5.215 26.829 13.967a32.756 32.756 0 0 1 3.968 29.997l-49.547 136.242h51.499c.01 28.356-20.49 52.564-48.463 57.226zm15.714-253.815c-18.096 0-32.765-14.671-32.765-32.765 0-18.096 14.669-32.765 32.765-32.765s32.765 14.669 32.765 32.765c0 18.095-14.668 32.765-32.765 32.765z"></path>
    </symbol>
    <symbol xmlns="http://www.w3.org/2000/svg" viewBox="0 0 511.999 511.999" id="team" fill="currentColor">
	<path d="M438.09 273.32h-39.596c4.036 11.05 6.241 22.975 6.241 35.404v149.65c0 5.182-.902 10.156-2.543 14.782h65.461c24.453 0 44.346-19.894 44.346-44.346v-81.581c.001-40.753-33.155-73.909-73.909-73.909zm-330.825 35.405c0-12.43 2.205-24.354 6.241-35.404H73.91c-40.754 0-73.91 33.156-73.91 73.91v81.581c0 24.452 19.893 44.346 44.346 44.346h65.462a44.144 44.144 0 0 1-2.543-14.783v-149.65zm193.996-73.91h-90.522c-40.754 0-73.91 33.156-73.91 73.91v149.65c0 8.163 6.618 14.782 14.782 14.782h208.778c8.164 0 14.782-6.618 14.782-14.782v-149.65c0-40.754-33.156-73.91-73.91-73.91zM256 38.84c-49.012 0-88.886 39.874-88.886 88.887 0 33.245 18.349 62.28 45.447 77.524 12.853 7.23 27.671 11.362 43.439 11.362s30.586-4.132 43.439-11.362c27.099-15.244 45.447-44.28 45.447-77.524 0-49.012-39.874-88.887-88.886-88.887zM99.918 121.689c-36.655 0-66.475 29.82-66.475 66.475 0 36.655 29.82 66.475 66.475 66.475a66.095 66.095 0 0 0 26.195-5.388c13.906-5.987 25.372-16.585 32.467-29.86a66.05 66.05 0 0 0 7.813-31.227c0-36.654-29.82-66.475-66.475-66.475zm312.164 0c-36.655 0-66.475 29.82-66.475 66.475a66.045 66.045 0 0 0 7.813 31.227c7.095 13.276 18.561 23.874 32.467 29.86a66.095 66.095 0 0 0 26.195 5.388c36.655 0 66.475-29.82 66.475-66.475 0-36.655-29.82-66.475-66.475-66.475z"></path>
    </symbol>
    <symbol xmlns="http://www.w3.org/2000/svg" viewBox="0 0 384 384" id="phone" fill="currentColor">
	<path d="M353.188 252.052c-23.51 0-46.594-3.677-68.469-10.906-10.719-3.656-23.896-.302-30.438 6.417l-43.177 32.594c-50.073-26.729-80.917-57.563-107.281-107.26l31.635-42.052c8.219-8.208 11.167-20.198 7.635-31.448-7.26-21.99-10.948-45.063-10.948-68.583C132.146 13.823 118.323 0 101.333 0h-70.52C13.823 0 0 13.823 0 30.813 0 225.563 158.438 384 353.188 384c16.99 0 30.813-13.823 30.813-30.813v-70.323c-.001-16.989-13.824-30.812-30.813-30.812z"></path>
    </symbol>
    <symbol xmlns="http://www.w3.org/2000/svg" viewBox="0 0 512 512" id="mail" fill="currentColor">
	<path d="M467 61H45c-6.927 0-13.412 1.703-19.279 4.51L255 294.789l51.389-49.387.005-.007.005-.004L486.286 65.514C480.418 62.705 473.929 61 467 61zm40.496 25.728L338.213 256.002 507.49 425.279c2.807-5.867 4.51-12.352 4.51-19.279V106c0-6.923-1.699-13.407-4.504-19.272zM4.51 86.721C1.703 92.588 0 99.073 0 106v300c0 6.923 1.701 13.409 4.506 19.274L173.789 256 4.51 86.721z"></path>
	<path d="M317.002 277.213l-51.396 49.393c-2.93 2.93-6.768 4.395-10.605 4.395s-7.676-1.465-10.605-4.395L195 277.211 25.714 446.486C31.582 449.295 38.071 451 45 451h422c6.927 0 13.412-1.703 19.279-4.51L317.002 277.213z"></path>
    </symbol>
    <symbol xmlns="http://www.w3.org/2000/svg" viewBox="0 0 512 512" id="money-bag" fill="currentColor">
	<path d="M266.667 365.504v38.464C278.933 400.96 288 393.067 288 384c0-8.469-7.104-14.4-21.333-18.496zM224 320c0 8.469 7.125 14.379 21.333 18.496v-38.464C233.067 303.04 224 310.933 224 320zM392 14.272c-3.008-3.413-8.661-7.488-18.496-7.488-21.44 0-55.531 20.736-72 31.659C289.344 21.163 271.317 0 256 0s-33.344 21.163-45.504 38.464c-16.469-10.944-50.56-31.659-72-31.659-9.813 0-15.488 4.075-18.496 7.488-4.843 5.461-7.019 12.587-6.315 20.587 2.432 28.053 43.648 69.056 70.656 93.12h143.36c26.987-24.064 68.203-65.045 70.656-93.12.683-8-1.514-15.125-6.357-20.608z"></path>
	<path d="M323.371 149.333h-134.72C147.925 193.387 53.333 301.099 53.333 352c0 88.235 90.923 160 202.667 160s202.667-71.765 202.667-160c0-50.923-94.571-158.635-135.296-202.667zm-56.704 276.459v11.541c0 5.888-4.779 10.667-10.667 10.667s-10.667-4.779-10.667-10.667v-11.499c-23.339-3.648-40.981-19.157-42.624-38.891-.491-5.867 3.861-11.029 9.728-11.52 5.952-.576 11.029 3.861 11.52 9.728.725 8.661 9.621 16 21.376 18.859v-43.499c-28.693-7.061-42.667-20.544-42.667-40.512 0-20.608 18.347-37.824 42.667-41.792v-11.541c0-5.888 4.779-10.667 10.667-10.667s10.667 4.779 10.667 10.667v11.499c23.339 3.648 40.96 19.136 42.624 38.891.491 5.867-3.861 11.029-9.728 11.52-5.696.747-11.029-3.861-11.52-9.728-.725-8.661-9.621-15.979-21.376-18.859v43.499c28.693 7.061 42.667 20.523 42.667 40.533-.001 20.587-18.347 37.803-42.667 41.771z"></path>
    </symbol>
    <symbol viewBox="0 0 511.81 511.81" xmlns="http://www.w3.org/2000/svg" id="checked" fill="currentColor">
	<path d="M284.353 8.8v112h112z"></path>
	<path d="M254.35 150.8V.01H0V495.8h283.73c-12.81-13.3-22.94-28.62-30.12-45.6-7.83-18.52-11.8-38.16-11.8-58.4s3.97-39.88 11.8-58.4c7.56-17.86 18.37-33.9 32.13-47.67 13.77-13.76 29.81-24.57 47.67-32.13 18.52-7.83 38.16-11.8 58.4-11.8 4.81 0 9.59.23 14.33.68V150.8zm-179.54-.33h120v30h-120zm120 210h-120v-30h120zm30-60h-150v-30h150zm76.33-60H74.81v-30h226.33z"></path>
	<path d="M391.81 271.8c-66.27 0-120 53.73-120 120s53.73 120 120 120 120-53.73 120-120-53.73-120-120-120zm-12.69 164.76l-42.63-43.87 21.52-20.91 22.6 23.26 47.22-42.1 19.96 22.39z"></path>
    </symbol>
    <symbol xmlns="http://www.w3.org/2000/svg" viewBox="0 0 512 512" id="doctor" fill="currentColor">
	<path d="M469.333 106.667H362.667V85.333c0-23.531-19.135-42.667-42.667-42.667H192c-23.531 0-42.667 19.135-42.667 42.667v21.333H42.667C19.135 106.667 0 125.802 0 149.333v277.333c0 23.531 19.135 42.667 42.667 42.667h426.667c23.531 0 42.667-19.135 42.667-42.667V149.333c-.001-23.531-19.136-42.666-42.668-42.666zM192 85.333h128v21.333H192V85.333zm170.667 245.334A10.66 10.66 0 0 1 352 341.334h-53.333v53.333A10.66 10.66 0 0 1 288 405.334h-64a10.66 10.66 0 0 1-10.667-10.667v-53.333H160a10.66 10.66 0 0 1-10.667-10.667v-64A10.66 10.66 0 0 1 160 256h53.333v-53.333A10.66 10.66 0 0 1 224 192h64a10.66 10.66 0 0 1 10.667 10.667V256H352a10.66 10.66 0 0 1 10.667 10.667v64z"></path>
    </symbol>
    <symbol viewBox="0 0 365.696 365.696" xmlns="http://www.w3.org/2000/svg" id="close" fill="currentColor">
	<path d="M243.188 182.86L356.32 69.726c12.5-12.5 12.5-32.766 0-45.247L341.238 9.398c-12.504-12.503-32.77-12.503-45.25 0L182.86 122.528 69.727 9.374c-12.5-12.5-32.766-12.5-45.247 0L9.375 24.457c-12.5 12.504-12.5 32.77 0 45.25l113.152 113.152L9.398 295.99c-12.503 12.503-12.503 32.769 0 45.25l15.082 15.08c12.5 12.5 32.766 12.5 45.247 0l113.132-113.132L295.99 356.32c12.503 12.5 32.769 12.5 45.25 0l15.081-15.082c12.5-12.504 12.5-32.77 0-45.25zm0 0"></path>
    </symbol>
    <symbol xmlns="http://www.w3.org/2000/svg" viewBox="0 0 512 512" id="calendar" fill="currentColor">
	<path d="M128 230.4h51.2v51.2H128zm102.4 0h51.2v51.2h-51.2zm102.4 0H384v51.2h-51.2zM128 332.8h51.2V384H128zm102.4 0h51.2V384h-51.2zm102.4 0H384V384h-51.2z"></path>
	<path d="M486.4 51.2h-51.2V25.6c0-15.36-10.24-25.6-25.6-25.6C394.24 0 384 10.24 384 25.6v25.6H128V25.6C128 10.24 117.76 0 102.4 0 87.04 0 76.8 10.24 76.8 25.6v25.6H25.6C10.24 51.2 0 61.44 0 76.8v409.6C0 501.76 10.24 512 25.6 512h460.8c12.8 0 25.6-10.24 25.6-25.6V76.8c0-15.36-12.8-25.6-25.6-25.6zm-25.6 409.6H51.2V153.6h409.6v307.2z"></path>
    </symbol>
    <symbol xmlns="http://www.w3.org/2000/svg" viewBox="0 0 512 512" id="bar-logout" fill="currentColor">
	<path d="M255.15 468.625H63.787c-11.737 0-21.262-9.526-21.262-21.262V64.638c0-11.737 9.526-21.262 21.262-21.262H255.15c11.758 0 21.262-9.504 21.262-21.262S266.908.85 255.15.85H63.787C28.619.85 0 29.47 0 64.638v382.724c0 35.168 28.619 63.787 63.787 63.787H255.15c11.758 0 21.262-9.504 21.262-21.262 0-11.758-9.504-21.262-21.262-21.262z"></path>
	<path d="M505.664 240.861L376.388 113.286c-8.335-8.25-21.815-8.143-30.065.213s-8.165 21.815.213 30.065l92.385 91.173H191.362c-11.758 0-21.262 9.504-21.262 21.262 0 11.758 9.504 21.263 21.262 21.263h247.559l-92.385 91.173c-8.377 8.25-8.441 21.709-.213 30.065a21.255 21.255 0 0 0 15.139 6.336c5.401 0 10.801-2.041 14.926-6.124l129.276-127.575A21.303 21.303 0 0 0 512 255.998c0-5.696-2.275-11.118-6.336-15.137z"></path>
    </symbol>
    <symbol viewBox="0 0 512 512" xmlns="http://www.w3.org/2000/svg" id="bar-alerts" fill="currentColor">
	<path d="M450.201 407.453c-1.505-.977-12.832-8.912-24.174-32.917-20.829-44.082-25.201-106.18-25.201-150.511 0-.193-.004-.384-.011-.576-.227-58.589-35.31-109.095-85.514-131.756V57.036C315.301 25.586 289.757 0 258.359 0h-4.719c-31.398 0-56.942 25.586-56.942 57.036v34.655c-50.372 22.734-85.525 73.498-85.525 132.334 0 44.331-4.372 106.428-25.201 150.511-11.341 24.004-22.668 31.939-24.174 32.917-6.342 2.935-9.469 9.715-8.01 16.586 1.473 6.939 7.959 11.723 15.042 11.723h109.947C179.391 477.903 213.785 512 256 512s76.609-34.097 77.223-76.238H443.17c7.082 0 13.569-4.784 15.042-11.723 1.457-6.871-1.669-13.652-8.011-16.586zM226.699 57.036c0-14.881 12.086-26.987 26.942-26.987h4.719c14.856 0 26.942 12.106 26.942 26.987v24.917a144.658 144.658 0 0 0-29.306-2.987A144.695 144.695 0 0 0 226.7 81.95V57.036zM256 481.951c-25.673 0-46.614-20.617-47.223-46.188h94.445c-.608 25.57-21.549 46.188-47.222 46.188zm60.4-76.239H103.015c2.595-4.044 5.236-8.623 7.861-13.798 20.104-39.643 30.298-96.129 30.298-167.889 0-63.417 51.509-115.01 114.821-115.01s114.821 51.593 114.821 115.06c0 .185.003.369.01.553.057 71.472 10.25 127.755 30.298 167.286 2.625 5.176 5.267 9.754 7.861 13.798z"></path>
    </symbol>
    <symbol xmlns="http://www.w3.org/2000/svg" viewBox="0 0 512 512" id="bar-messages" fill="currentColor">
	<path d="M467 61H45C20.218 61 0 81.196 0 106v300c0 24.72 20.128 45 45 45h422c24.72 0 45-20.128 45-45V106c0-24.72-20.128-45-45-45zm-6.214 30L256.954 294.833 51.359 91h409.427zM30 399.788V112.069l144.479 143.24L30 399.788zM51.213 421l144.57-144.57 50.657 50.222c5.864 5.814 15.327 5.795 21.167-.046L317 277.213 460.787 421H51.213zM482 399.787L338.213 256 482 112.212v287.575z"></path>
    </symbol>
    <symbol viewBox="0 0 511.5 511.5" xmlns="http://www.w3.org/2000/svg" id="videocall" fill="currentColor">
	<path d="M189.75 376.287V411.5h132v-35.213c-20.751 6.943-42.943 10.713-66 10.713s-45.249-3.77-66-10.713zm175.5 65.213H146.249c-24.813 0-44.999 20.187-44.999 45v10c0 8.284 6.716 15 15 15h279c8.284 0 15-6.716 15-15v-10c0-24.812-20.187-45-45-45zm-109.5-344c26.275 0 49.658 12.584 64.467 32.033L348.32 25.93C321.313 9.482 289.618 0 255.75 0c-33.873 0-65.573 9.485-92.583 25.938l28.102 103.614c14.807-19.46 38.197-32.052 64.481-32.052zm0-57c8.262 0 15 6.738 15 15s-6.738 15-15 15-15-6.738-15-15 6.738-15 15-15z"></path>
	<circle cx="255.75" cy="178.5" r="51"></circle>
	<path d="M255.75 357c98.425 0 178.5-80.075 178.5-178.5 0-53.009-23.235-100.685-60.044-133.406l-37.657 138.822c-2.799 42.145-37.957 75.584-80.799 75.584-42.804 0-77.938-33.381-80.791-75.475l-37.677-138.92C100.479 77.826 77.25 125.497 77.25 178.5c0 98.425 80.075 178.5 178.5 178.5z"></path>
    </symbol>
    <symbol xmlns="http://www.w3.org/2000/svg" viewBox="0 0 384 384" id="healthcare" fill="currentColor">
	<path d="M368 187.608h-52.84L276.32 74.792A16.01 16.01 0 0 0 261.184 64a16 16 0 0 0-15.128 10.792l-61.992 180.056L130.096 98a16 16 0 0 0-30.256 0l-30.856 89.608H16c-8.832 0-16 7.168-16 16s7.168 16 16 16h64.392a16 16 0 0 0 15.128-10.792l19.44-56.448L168.944 309.2a16.004 16.004 0 0 0 15.128 10.8 16.007 16.007 0 0 0 15.128-10.792l61.984-180.056 27.432 79.664a15.992 15.992 0 0 0 15.128 10.792H368c8.832 0 16-7.168 16-16s-7.168-16-16-16z"></path>
    </symbol>
    <symbol viewBox="0 0 58 58" xmlns="http://www.w3.org/2000/svg" id="call-type" fill="currentColor">
	<path d="M24.017 33.983c-5.536-5.536-6.786-11.072-7.068-13.29a1.988 1.988 0 0 1 .571-1.664L22 14.551a2 2 0 0 0 .282-2.475L15.149 1a2 2 0 0 0-2.591-.729L1.107 5.664a1.989 1.989 0 0 0-1.1 1.987c.6 5.7 3.085 19.712 16.855 33.483s27.78 16.255 33.483 16.855a1.989 1.989 0 0 0 1.987-1.1l5.393-11.451A2 2 0 0 0 57 42.851L45.924 35.72a2 2 0 0 0-2.475.28l-4.478 4.48c-.436.439-1.05.65-1.664.571-2.218-.282-7.754-1.532-13.29-7.068z"></path>
	<path d="M46 31a2 2 0 0 1-2-2c-.01-8.28-6.72-14.99-15-15a2 2 0 1 1 0-4c10.489.012 18.988 8.511 19 19a2 2 0 0 1-2 2z"></path>
	<path d="M56 31a2 2 0 0 1-2-2C53.985 15.2 42.8 4.015 29 4a2 2 0 1 1 0-4c16.009.018 28.982 12.991 29 29a2 2 0 0 1-2 2z"></path>
    </symbol>
    <symbol xmlns="http://www.w3.org/2000/svg" viewBox="0 0 247.582 247.582" id="gender" fill="currentColor">
	<path d="M196.666 93.047V76.445h10v-21h-10v-15h-25v15h-11v21h11v16.424c-29 5.64-51.581 31.564-51.581 62.617 0 35.162 28.69 63.769 63.852 63.769 35.163 0 63.645-28.606 63.645-63.769 0-30.717-21.916-56.427-50.916-62.439zm-12.645 101.207c-21.377 0-38.769-17.392-38.769-38.769 0-21.378 17.392-38.77 38.769-38.77 21.378 0 38.77 17.392 38.77 38.77-.001 21.378-17.392 38.769-38.77 38.769zm-56.44-102.85c0-35.162-28.523-63.769-63.686-63.769S0 56.242 0 91.404c0 31.068 22.666 57.003 51.666 62.625v27.99l-8.184-7.057-13.471 16.039 34.295 28.945 35.335-28.831-13.437-16.268-9.537 7.658v-28.674c28.999-6.027 50.914-31.726 50.914-62.427zm-102.373 0c0-21.377 17.392-38.769 38.77-38.769s38.77 17.392 38.77 38.769c0 21.378-17.392 38.77-38.77 38.77s-38.77-17.392-38.77-38.77z"></path>
    </symbol>
    <symbol viewBox="0 0 512.063 512.063" xmlns="http://www.w3.org/2000/svg" id="medical-guard" fill="currentColor">
	<path d="M285.971 236.113h48.26v29.87h-48.26c-8.29 0-15 6.72-15 15v48.27h-29.87v-48.27c0-8.28-6.71-15-15-15h-48.27v-29.87h48.27c8.29 0 15-6.71 15-15v-48.27h29.87v48.27c0 8.289 6.71 15 15 15z"></path>
	<path d="M473.011 138.883l-.01-.49c-.24-12.76-.47-24.82-.47-36.42 0-17.58-14.3-31.87-31.87-31.87-68 0-119.61-19.39-162.42-61.02-12.46-12.11-31.98-12.11-44.44 0-42.8 41.63-94.41 61.02-162.4 61.02-17.57 0-31.87 14.29-31.87 31.87 0 11.84-.23 24.02-.48 36.92-1.15 60.2-2.58 135.12 22.56 203.13 13.83 37.4 34.76 69.89 62.22 96.59 31.28 30.41 72.24 54.53 121.75 71.69 3.37 1.17 6.88 1.76 10.44 1.76s7.08-.59 10.44-1.76c49.51-17.16 90.48-41.28 121.76-71.69 27.46-26.7 48.39-59.2 62.22-96.59 25.15-68.02 23.72-142.94 22.57-203.14zm-108.78 142.099c0 8.28-6.71 15-15 15h-48.26v48.27c0 8.28-6.72 15-15 15h-59.87c-8.28 0-15-6.72-15-15v-48.27h-48.27c-8.29 0-15-6.72-15-15v-59.87c0-8.28 6.71-15 15-15h48.27v-48.27c0-8.28 6.72-15 15-15h59.87c8.28 0 15 6.72 15 15v48.27h48.26c8.29 0 15 6.72 15 15z"></path>
    </symbol>
    <symbol xmlns="http://www.w3.org/2000/svg" viewBox="0 0 512.001 512.001" id="tooth" fill="currentColor">
	<path d="M480.615 90.381c-14.047-40.775-42.729-70.776-78.693-82.31-68.293-21.898-124.454 6.242-145.92 19.733-21.466-13.492-77.629-41.632-145.921-19.733C74.1 19.61 45.411 49.629 31.37 90.429c-18.462 53.651-9.166 115.534 24.871 165.538 22.731 33.395 37.573 71.083 42.924 108.988.309 2.187.61 4.421.905 6.706 5.153 39.974 12.742 72.059 22.558 95.362 11.762 27.925 26.938 43.005 45.109 44.823 19.26 1.924 35.247-14.092 47.531-47.607 8.59-23.436 15.363-54.84 19.069-88.428 2.072-18.776 6.916-33.977 14.01-43.96 2.53-3.56 6.196-3.944 7.655-3.944 1.459 0 5.125.384 7.655 3.944 7.093 9.983 11.937 25.185 14.009 43.96 3.706 33.588 10.48 64.992 19.069 88.428 11.625 31.718 26.568 47.762 44.458 47.762 1.014 0 2.04-.052 3.073-.155 18.171-1.818 33.347-16.898 45.109-44.823 9.816-23.303 17.405-55.387 22.558-95.363.284-2.2.574-4.353.871-6.464 5.342-37.971 20.222-75.779 43.031-109.337 33.986-50.001 43.249-111.862 24.78-165.478z"></path>
    </symbol>
    <symbol xmlns="http://www.w3.org/2000/svg" viewBox="0 0 384 384" id="call-note" fill="currentColor">
	<path d="M353.188 252.052c-23.521 0-46.604-3.677-68.479-10.906-10.75-3.646-23.896-.292-30.438 6.417l-43.167 32.594c-50.063-26.729-80.917-57.563-107.292-107.26l31.667-42.073c8.229-8.229 11.146-20.219 7.604-31.427-7.25-22.021-10.938-45.104-10.938-68.583C132.146 13.823 118.333 0 101.333 0H30.812C13.812 0 0 13.823 0 30.812 0 225.563 158.438 384 353.188 384c17 0 30.813-13.823 30.813-30.813v-70.323c-.001-16.989-13.813-30.812-30.813-30.812z"></path>
	<path d="M352 21.656H224c-17.646 0-32 14.375-32 32.042V202.99a10.67 10.67 0 0 0 10.666 10.667c2.771 0 5.5-1.083 7.542-3.135l39.542-39.604H352c17.646 0 32-14.375 32-32.042V53.698c0-17.667-14.354-32.042-32-32.042z"></path>
    </symbol>
    <symbol viewBox="-21 -47 682.667 682" xmlns="http://www.w3.org/2000/svg" id="comments" fill="currentColor">
	<path d="M552.012-1.332H87.988C39.473-1.332 0 38.141 0 86.656V370.63c0 48.422 39.3 87.824 87.676 87.988v128.871l185.183-128.86h279.153c48.515 0 87.988-39.472 87.988-88V86.657c0-48.515-39.473-87.988-87.988-87.988zM468.703 328.68H171.297v-37.5h297.406zm0-80H171.297v-37.5h297.406zm0-80H171.297v-37.5h297.406zm0 0"></path>
    </symbol>
    <symbol viewBox="0 0 467.765 467.765" xmlns="http://www.w3.org/2000/svg" id="email-subject" fill="currentColor">
	<path d="M175.412 87.706h58.471v29.235h58.471V29.235H0v87.706h58.471V87.706h58.471v292.353H58.471v58.471h175.383v-58.471h-58.442z"></path>
	<path d="M233.882 175.412v87.706h58.471v-29.235h29.235v146.176h-29.235v58.471h116.941v-58.471h-29.235V233.882h29.235v29.235h58.471v-87.706H233.882z"></path>
    </symbol>
    <symbol xmlns="http://www.w3.org/2000/svg" viewBox="0 0 512.18 512.18" id="symbols" fill="currentColor">
	<path d="M448.18 80h-320c-17.673 0-32 14.327-32 32s14.327 32 32 32h320c17.673 0 32-14.327 32-32s-14.327-32-32-32zm-384 32a32.004 32.004 0 0 0-9.44-22.56c-12.481-12.407-32.639-12.407-45.12 0A31.996 31.996 0 0 0 .18 112a27.243 27.243 0 0 0 0 6.24 28.851 28.851 0 0 0 1.76 6.08 37.139 37.139 0 0 0 3.04 5.44 29.275 29.275 0 0 0 4 4.96 28.322 28.322 0 0 0 4.8 3.84 26.073 26.073 0 0 0 5.44 3.04 26.412 26.412 0 0 0 6.72 2.4 28.06 28.06 0 0 0 6.24 0 31.999 31.999 0 0 0 22.56-9.28 29.275 29.275 0 0 0 4-4.96 37.139 37.139 0 0 0 3.04-5.44 29.714 29.714 0 0 0 2.4-6.08 27.243 27.243 0 0 0 0-6.24zm0 144a27.356 27.356 0 0 0 0-6.24 25.927 25.927 0 0 0-2.4-5.92 31.985 31.985 0 0 0-3.04-5.6 23.044 23.044 0 0 0-4-4.8c-12.481-12.407-32.639-12.407-45.12 0A31.996 31.996 0 0 0 .18 256a35.512 35.512 0 0 0 2.4 12.32 35.802 35.802 0 0 0 2.88 5.44 30.727 30.727 0 0 0 4.16 4.8 23.363 23.363 0 0 0 4.8 4 25.958 25.958 0 0 0 5.44 3.04 27.212 27.212 0 0 0 6.08 1.76c2.047.459 4.142.674 6.24.64 2.073.239 4.167.239 6.24 0a25.968 25.968 0 0 0 5.92-1.76 26.72 26.72 0 0 0 5.6-3.04 23.363 23.363 0 0 0 4.8-4 23.363 23.363 0 0 0 4-4.8 25.73 25.73 0 0 0 3.04-5.44 27.07 27.07 0 0 0 2.4-6.72 26.473 26.473 0 0 0 0-6.24zm0 144a27.471 27.471 0 0 0 0-6.24 27.238 27.238 0 0 0-2.4-6.08 37.139 37.139 0 0 0-3.04-5.44 23.363 23.363 0 0 0-4-4.8c-12.481-12.407-32.639-12.407-45.12 0a23.363 23.363 0 0 0-4 4.8 37.139 37.139 0 0 0-3.04 5.44 26.224 26.224 0 0 0-1.76 6.08A27.499 27.499 0 0 0 .18 400a32.004 32.004 0 0 0 9.44 22.56 23.363 23.363 0 0 0 4.8 4 25.958 25.958 0 0 0 5.44 3.04 27.212 27.212 0 0 0 6.08 1.76c2.047.459 4.142.674 6.24.64 2.073.239 4.167.239 6.24 0a25.968 25.968 0 0 0 5.92-1.76 26.72 26.72 0 0 0 5.6-3.04 23.363 23.363 0 0 0 4.8-4 23.363 23.363 0 0 0 4-4.8 25.617 25.617 0 0 0 3.04-5.44 27.164 27.164 0 0 0 2.4-6.72 26.473 26.473 0 0 0 0-6.24zm416-176h-352c-17.673 0-32 14.327-32 32s14.327 32 32 32h352c17.673 0 32-14.327 32-32s-14.327-32-32-32zm-144 144h-208c-17.673 0-32 14.327-32 32 0 17.673 14.327 32 32 32h208c17.673 0 32-14.327 32-32 0-17.673-14.327-32-32-32z"></path>
    </symbol>
    <symbol xmlns="http://www.w3.org/2000/svg" viewBox="0 0 512.001 512.001" id="close" fill="#fff">
	<path d="M284.286 256.002L506.143 34.144c7.811-7.811 7.811-20.475 0-28.285-7.811-7.81-20.475-7.811-28.285 0L256 227.717 34.143 5.859c-7.811-7.811-20.475-7.811-28.285 0-7.81 7.811-7.811 20.475 0 28.285l221.857 221.857L5.858 477.859c-7.811 7.811-7.811 20.475 0 28.285a19.938 19.938 0 0 0 14.143 5.857 19.94 19.94 0 0 0 14.143-5.857L256 284.287l221.857 221.857c3.905 3.905 9.024 5.857 14.143 5.857s10.237-1.952 14.143-5.857c7.811-7.811 7.811-20.475 0-28.285L284.286 256.002z"></path>
    </symbol>
    <symbol xmlns="http://www.w3.org/2000/svg" viewBox="0 0 192.1 223.4" id="id" fill="currentColor">
	<path d="M0 9.6h26.7v211.2H0zM190.8 0h-26.6v87.5h-.6C157 75.3 142.8 66.2 123 66.2c-33.1 0-61.8 29-61.8 80.1 0 47 25.5 77 59.2 77 22.1 0 38.4-12.2 45.7-27.1h.9l1.6 24.5h23.6c-.6-10-1.3-25.7-1.3-38.2L190.8 0zm-26.5 160.1c.1 3.8-.3 7.6-1.3 11.3-5.3 21-20.3 31-35.4 31-26.6 0-39.9-25.7-39.9-56.7 0-32.3 14.2-58.2 40.5-58.2 18.3 0 31.7 14.1 35.1 31 .6 3.7 1 7.5 1 11.3v30.3z"></path>
    </symbol>
</svg>
